<svg width="12" height="20" viewBox="0 0 12 20" fill="none" xmlns="http://www.w3.org/2000/svg">
<path opacity="0.4" fill-rule="evenodd" clip-rule="evenodd" d="M0.000114441 3.75005C0.000114441 1.679 2.01484 0 4.50004 0C6.98534 0 8.99998 1.679 8.99998 3.75005V15.0001C8.99998 16.3808 7.65683 17.4999 6 17.4999C4.34317 17.4999 3.00002 16.3808 3.00002 15.0001V5.00007H4.50004V15.0001C4.50004 15.6904 5.17155 16.2501 6 16.2501C6.82845 16.2501 7.50004 15.6904 7.50004 15.0001V3.75005C7.50004 2.36931 6.15688 1.25004 4.50004 1.25004C2.84313 1.25004 1.49998 2.36931 1.49998 3.75005V15.0001C1.49998 17.0712 3.51472 18.7502 6 18.7502C8.48528 18.7502 10.5 17.0712 10.5 15.0001V2.50006H12V15.625C11.6302 18.0907 9.05924 20.0001 6 20.0001C2.94093 20.0001 0.369866 18.0907 -6.10352e-05 15.625L0.000114441 3.75005Z" fill="black"/>
</svg>
